<?xml version="1.0" standalone="no"?>
<!DOCTYPE svg PUBLIC "-//W3C//DTD SVG 20010904//EN"
 "http://www.w3.org/TR/2001/REC-SVG-20010904/DTD/svg10.dtd">
<svg version="1.0" xmlns="http://www.w3.org/2000/svg"
 width="250.000000pt" height="250.000000pt" viewBox="0 0 250.000000 250.000000"
 preserveAspectRatio="xMidYMid meet">
<metadata>
Created by potrace 1.11, written by Peter Selinger 2001-2013
</metadata>
<g transform="translate(0.000000,250.000000) scale(0.100000,-0.100000)"
fill="#000000" stroke="none">
<path d="M215 1514 c-48 -17 -106 -67 -128 -110 -21 -41 -28 -87 -31 -203 -2
-106 20 -195 56 -219 16 -12 17 -16 7 -23 -10 -6 -8 -9 8 -9 12 0 23 -3 25 -7
2 -5 19 -17 38 -28 40 -23 189 -32 223 -14 14 8 18 8 13 0 -8 -13 90 43 115
65 13 12 16 35 15 132 l-1 117 -120 0 -119 0 -2 -52 -1 -53 49 0 48 0 0 -44
c0 -25 -5 -48 -11 -51 -20 -13 -91 -16 -124 -5 -58 19 -70 49 -71 184 -2 120
1 150 16 141 5 -3 6 3 4 13 -7 25 30 60 71 68 61 11 101 -16 119 -81 6 -19 31
-22 129 -16 12 1 2 62 -16 97 -50 97 -191 141 -312 98z"/>
<path d="M2119 1516 c-93 -33 -140 -87 -141 -164 0 -70 34 -120 100 -148 18
-8 31 -18 28 -22 -2 -4 10 -8 27 -8 17 -1 33 -6 35 -13 2 -6 7 -9 12 -6 4 3
31 -5 59 -17 36 -14 50 -26 47 -35 -3 -8 -2 -12 3 -9 13 8 19 -15 11 -44 -9
-36 -46 -52 -104 -46 -52 6 -84 29 -89 65 -2 11 -6 23 -9 27 -8 8 -129 7 -136
-1 -12 -11 20 -101 44 -126 13 -14 21 -29 17 -33 -4 -4 0 -4 10 0 11 4 19 0
23 -10 3 -9 10 -13 15 -10 5 3 15 2 22 -3 6 -4 19 -9 27 -12 26 -7 210 -9 210
-2 0 3 20 17 44 30 33 17 49 33 60 62 31 77 13 158 -43 200 -19 14 -29 29 -26
37 4 11 2 12 -7 5 -15 -12 -185 53 -219 83 -23 20 -19 55 8 82 24 24 103 25
131 2 13 -11 23 -21 22 -24 -2 -35 0 -36 76 -36 l76 0 -7 33 c-19 93 -100 150
-220 153 -38 2 -86 -3 -106 -10z"/>
<path d="M610 1508 c0 -15 18 -100 50 -238 12 -52 26 -112 30 -133 4 -21 10
-41 14 -44 3 -3 0 -13 -7 -21 -10 -13 -9 -14 2 -7 11 6 13 1 9 -23 -2 -17 -1
-29 4 -26 4 3 8 2 9 -3 1 -8 2 -15 14 -68 3 -16 7 -34 7 -40 2 -15 144 -7 146
8 3 40 39 147 46 140 5 -4 6 -3 2 4 -9 17 14 103 28 103 8 0 8 2 0 8 -8 5 -6
22 6 57 15 44 18 47 24 27 4 -13 5 -26 2 -29 -3 -3 1 -11 8 -19 15 -15 15 -60
0 -57 -6 1 -11 -5 -11 -12 0 -11 4 -12 14 -3 16 13 20 10 27 -22 3 -14 14 -58
26 -99 11 -41 19 -80 16 -88 -3 -8 -1 -11 4 -8 6 3 10 0 10 -7 0 -9 19 -13 69
-13 l70 0 7 35 c4 19 8 37 9 40 3 12 26 119 30 143 3 15 9 37 14 49 5 13 9 25
9 28 0 3 3 21 7 40 3 19 8 44 10 55 2 11 4 20 5 20 1 0 3 9 5 20 3 11 13 59
24 108 l19 87 -68 0 c-57 0 -70 -3 -74 -17 -5 -18 -23 -107 -31 -156 -3 -15
-7 -38 -9 -52 -10 -56 -38 -176 -41 -173 -3 3 -48 167 -88 321 l-20 78 -50 -3
-51 -3 -12 -45 c-51 -183 -85 -308 -89 -324 -9 -36 -13 -26 -35 91 -12 65 -24
127 -26 138 -2 11 -10 47 -17 80 l-12 60 -67 3 c-51 2 -68 0 -68 -10z"/>
<path d="M1419 1454 c-3 -291 -1 -545 4 -550 8 -8 262 -6 313 2 110 17 167 89
157 195 -2 24 -5 50 -5 56 -1 7 -4 11 -6 8 -3 -3 -12 4 -20 16 -8 11 -26 25
-41 31 -17 8 -21 12 -11 15 30 7 63 72 63 122 0 66 -27 109 -88 141 -46 23
-62 25 -207 29 l-158 3 -1 -68z m296 -70 c15 -20 19 -63 7 -79 -14 -19 -63
-35 -110 -35 l-48 0 0 71 0 71 68 -4 c52 -4 72 -10 83 -24z m0 -234 c14 -5 23
-14 20 -20 -3 -5 -2 -10 4 -10 17 0 9 -68 -10 -88 -13 -15 -33 -19 -91 -21
l-74 -2 0 53 c1 29 5 56 11 60 7 5 6 8 -1 8 -6 0 -11 7 -11 15 0 12 14 15 63
15 34 0 75 -4 89 -10z"/>
<path d="M2319 1293 c-13 -16 -12 -17 4 -4 9 7 17 15 17 17 0 8 -8 3 -21 -13z"/>
<path d="M790 881 c0 -6 4 -13 10 -16 6 -3 7 1 4 9 -7 18 -14 21 -14 7z"/>
<path d="M2035 871 c-3 -5 -2 -12 3 -15 5 -3 9 1 9 9 0 17 -3 19 -12 6z"/>
<path d="M465 860 c-3 -6 1 -7 9 -4 18 7 21 14 7 14 -6 0 -13 -4 -16 -10z"/>
<path d="M1130 866 c0 -2 7 -7 16 -10 8 -3 12 -2 9 4 -6 10 -25 14 -25 6z"/>
<path d="M2155 831 c-3 -5 -2 -12 3 -15 5 -3 9 1 9 9 0 17 -3 19 -12 6z"/>
<path d="M270 819 c0 -5 5 -7 10 -4 6 3 10 8 10 11 0 2 -4 4 -10 4 -5 0 -10
-5 -10 -11z"/>
</g>
</svg>
